<svg xmlns="http://www.w3.org/2000/svg" viewBox="0 0 192 192"><path d="M80 60v68h50.343L164 161.657V128h12V60H80zm88 60h-12v22.343L133.657 120H88V68h80v52zM58.343 96H72v8H61.657L28 137.657V104H16V32h100v20h-8V40H24v56h12v22.343L58.343 96zm63.156 6.823h11.68l1.669 5.177h8.942l-10.825-30.592h-9.926L112 108h7.787l1.712-5.177zm5.904-17.885l3.893 11.938h-7.872l3.98-11.938zm-72.895-21.7h11.804l-.107.357c-.841 2.923-1.618 5.065-2.331 6.428-1.64 3.077-3.814 5.789-6.522 8.135 3.421 1.686 8.176 3.225 14.263 4.615l.385.085-.192.337c-.656 1.124-1.041 1.812-1.155 2.065-.114.253-.271.73-.47 1.433l-.343 1.138-.256-.084c-3.964-1.194-7.007-2.202-9.132-3.024-2.124-.822-4.697-1.999-7.72-3.53-3.235 1.616-6.186 2.908-8.852 3.878-2.666.969-5.952 1.946-9.859 2.929l-.064-.295c-.214-.984-.356-1.574-.427-1.77-.072-.197-.264-.555-.578-1.075-.285-.478-.62-1.054-1.005-1.728l.385-.085c6.387-1.236 11.619-2.845 15.696-4.826-2.965-2.458-5.325-5.837-7.078-10.137h-4.448v-4.826h12.724v-3.835H32.909v-5.1h16.317V48h5.282v6.322h16.786v5.1H54.508v3.815zm-8.383 4.846c1.61 3.33 3.806 5.852 6.586 7.566 1.326-.87 2.599-1.995 3.817-3.372 1.22-1.377 2.185-2.775 2.898-4.194H46.125z"/></svg>