<svg xmlns="http://www.w3.org/2000/svg" viewBox="0 0 192 192"><path d="M143.971 152h-16v-8h-8v-16h8v8h8v8h8v8zm-24 0H80v-32h24v8h8l-.003 16h7.974v8zM88 144h15.997l.002-8h-8v-8h-8v16zm64-12h-8v-8h8v8zM107.97 96h-4l.029 16H88v-8h7.971v-8H88v-8h-8V72h8v8h7.971v8h4m0 0h4v-8h8v8H120v-8h16v14.419l.009 3.547L136 104h-8l-.029-8h-8v8H128v8h8v-8h8v20h-8v3.999l-8 .002-.002-8.001h-15.985l-.013-9.275V108l-.029-12h-4m-56 8h-4v8h-8V96h8.007l.015-8H39.97v-8H52m0 0H71.97v8H55.993l-.015 8h7.993v8h8v8h-16v-8h-4M88 104H72v-8h16v8zm64-16h-8v-8h8v8zm-48.029-8h-8v-8h8v8zm.029-7.99L103.98 64H88.008l-.025-8h-8.012v-8h8.014l.028-8h23.994l-.036 19.998L112 71.99l-8 .018zM95.984 56h7.994l.015-8h-8.007l-.015 4.002.013 3.998zM60 132h-8v8h8v-8zm12 20H40v-32h32v32zm-24-8h16v-16H48v16zm84-84h8v-8h-8v8zm20 12h-32V40h32v32zm-24-8h16V48h-16v16zm-76-4h8v-8h-8.003L52 60zm20 12H40.006l-.038-32h32.028L72 72zm-24.005-8h16.004l-.002-16h-16.02l.018 16zm-24-40h24v-8h-32v32h8V24zm152.01-8h-32.01v8h24.01v24h8V16zM47.995 168h-24v-24h-8v32h32v-8zM176 144h-8v24h-24v8h32v-32z"/></svg>