<svg xmlns="http://www.w3.org/2000/svg" viewBox="0 0 192 192"><path d="M153.171 133.171l5.658 5.658L140 157.657l-10.829-10.828 5.658-5.658 5.171 5.172 13.171-13.172zM176 144c0 17.645-14.355 32-32 32s-32-14.355-32-32 14.355-32 32-32 32 14.355 32 32zm-8 0c0-13.234-10.766-24-24-24s-24 10.766-24 24 10.766 24 24 24 24-10.766 24-24zm-63.149 8.212a39.635 39.635 0 0 0 1.028 3.898A52.716 52.716 0 0 1 86 160c-29.776 0-54-24.879-54-55.46V39.448l54-23.819 54 23.819V104.2a39.823 39.823 0 0 0-4.007.606c-1.369.28-2.71.63-4.025 1.046C115.774 110.972 104 126.135 104 144a39.777 39.777 0 0 0 .851 8.212zM86 24.372l-46 20.29v59.879C40 130.71 60.636 152 86 152V24.372z"/></svg>