<svg xmlns="http://www.w3.org/2000/svg" viewBox="0 0 192 192"><path d="M144 112c-17.645 0-32 14.355-32 32s14.355 32 32 32 32-14.355 32-32-14.355-32-32-32zm0 56c-13.234 0-24-10.766-24-24s10.766-24 24-24 24 10.766 24 24-10.766 24-24 24zm4-28h12v8h-12v12h-8v-12h-12v-8h12v-12h8v12zm-31.017-25.467c-5.224-14.62-16.783-26.038-31.07-31.323C96.71 76.993 104 65.35 104 52.028c0-19.836-16.15-35.973-36-35.973S32 32.192 32 52.028c0 13.308 7.276 24.943 18.056 31.165C30.2 90.517 16 109.631 16 132h8c0-24.262 19.738-44 44-44 20.317 0 38.096 14.111 42.786 33.736a40.31 40.31 0 0 1 6.197-7.203zM40 52.028c0-15.424 12.56-27.973 28-27.973s28 12.549 28 27.973S83.439 80 68 80 40 67.452 40 52.028z"/></svg>