<svg xmlns="http://www.w3.org/2000/svg" viewBox="0 0 192 192"><path d="M126.829 62.829L84 105.657 65.171 86.829l5.658-5.658L84 94.343l37.171-37.172 5.658 5.658zm12.287 60.287l-3.042.456L149.55 164h-20.34l-15.349 10.233-12.426-37.277L96 140.974l-5.435-4.018-12.426 37.277L62.789 164H42.45l13.476-40.428-3.042-.456-1.949-13.004-11.268-6.778 3.175-12.76L35.026 80l7.816-10.574-3.175-12.76 11.268-6.778 1.95-13.004 13.003-1.949 6.779-11.268 12.76 3.175L96 19.026l10.574 7.816 12.76-3.175 6.778 11.268 13.004 1.95 1.949 13.003 11.268 6.779-3.175 12.76L156.974 80l-7.816 10.574 3.175 12.76-11.268 6.778-1.95 13.004zm-55.902 10.592l-10.548 2.625-6.778-11.268-1.93-.29L53.55 156h11.66l8.651 5.767 9.353-28.059zM96 131.026l8.848-6.541 10.679 2.657 5.672-9.43 10.882-1.631 1.631-10.882 9.43-5.672-2.657-10.679 6.54-8.848-6.54-8.848 2.657-10.679-9.43-5.672-1.631-10.882-10.882-1.631-5.672-9.43-10.679 2.657L96 28.975l-8.848 6.54-10.679-2.657-5.672 9.43-10.882 1.631-1.631 10.882-9.43 5.672 2.657 10.679L44.975 80l6.54 8.848-2.657 10.679 9.43 5.672 1.631 10.882 10.882 1.631 5.672 9.43 10.679-2.657 8.848 6.54zm32.042-6.25l-1.93.289-6.778 11.268-10.548-2.625 9.353 28.059 8.65-5.767h11.661l-10.408-31.224z"/></svg>